<svg xmlns="http://www.w3.org/2000/svg" viewBox="0 0 512 512">
  <rect width="512" height="512" rx="0" fill="#0000FF"/>
  <g transform="translate(56, 160)" fill="white">
    <!-- F -->
    <rect x="0" y="0" width="30" height="160"/>
    <rect x="0" y="0" width="90" height="28"/>
    <!-- o with wifi arcs -->
    <g transform="translate(140, 80)">
      <path d="M-40,0 A40,40 0 1,1 40,0 A40,40 0 1,1 -40,0 Z M-20,0 A20,20 0 1,0 20,0 A20,20 0 1,0 -20,0 Z"/>
    </g>
    <!-- WiFi arcs -->
    <g transform="translate(140, 50)" stroke="white" stroke-width="8" fill="none">
      <path d="M-30,0 Q0,-30 30,0"/>
      <path d="M-20,8 Q0,-12 20,8"/>
      <path d="M-10,16 Q0,4 10,16"/>
    </g>
    <!-- - -->
    <rect x="200" y="68" width="30" height="24"/>
    <!-- F -->
    <rect x="250" y="0" width="30" height="160"/>
    <rect x="250" y="0" width="90" height="28"/>
    <!-- i -->
    <rect x="360" y="0" width="30" height="24"/>
    <rect x="360" y="48" width="30" height="112"/>
  </g>
  <!-- IOT Labs Ltd. -->
  <text x="370" y="380" text-anchor="middle" font-family="Arial, sans-serif" font-size="40" font-weight="bold" fill="white">IOT Labs Ltd.</text>
</svg>
